<svg width="44" height="53" viewBox="0 0 44 53" fill="none" xmlns="http://www.w3.org/2000/svg">
<path d="M1 1C48.0149 24.365 8.69328 46.0204 3.56445 33.4831C-1.61408 20.8243 14.5898 16.4235 24.365 22.9403C32.0584 28.0692 38.612 40.9864 40.0366 48.8698" stroke="black"/>
<path d="M40.3724 52.5593C40.6013 52.7137 40.9121 52.6533 41.0665 52.4244L43.5827 48.6936C43.7371 48.4647 43.6767 48.1539 43.4478 47.9995C43.2188 47.8451 42.9081 47.9055 42.7537 48.1345L40.517 51.4507L37.2008 49.2141C36.9718 49.0596 36.6611 49.1201 36.5067 49.349C36.3523 49.5779 36.4127 49.8887 36.6416 50.0431L40.3724 52.5593ZM39.469 48.6803L40.1612 52.2402L41.1428 52.0494L40.4506 48.4894L39.469 48.6803Z" fill="black"/>
</svg>
