<svg width="64" height="64" viewBox="0 0 64 64" fill="none" xmlns="http://www.w3.org/2000/svg">
<circle cx="32" cy="32" r="32" fill="#5959CB" fill-opacity="0.26"/>
<path d="M40.45 30.103C41.7453 30.103 43.0116 29.7189 44.0887 28.9993C45.1657 28.2797 46.0053 27.2569 46.5011 26.0603C46.997 24.8636 47.1268 23.5467 46.8744 22.2763C46.6219 21.0058 45.9983 19.8387 45.0826 18.9225C44.1669 18.0064 43.0001 17.3823 41.7297 17.1292C40.4593 16.8761 39.1424 17.0054 37.9455 17.5007C36.7486 17.996 35.7254 18.8351 35.0053 19.9118C34.2852 20.9886 33.9006 22.2547 33.9 23.55C33.9016 25.287 34.5921 26.9524 35.82 28.1809C37.048 29.4093 38.713 30.1006 40.45 30.103ZM40.45 17.9385C41.5603 17.9386 42.6456 18.268 43.5688 18.8849C44.4919 19.5019 45.2113 20.3788 45.636 21.4046C46.0608 22.4305 46.1717 23.5592 45.9549 24.6482C45.7381 25.7371 45.2032 26.7373 44.418 27.5222C43.6327 28.3072 42.6323 28.8416 41.5432 29.0579C40.4542 29.2742 39.3255 29.1628 38.2998 28.7376C37.2741 28.3124 36.3976 27.5926 35.781 26.6692C35.1645 25.7458 34.8356 24.6603 34.836 23.55C34.8382 22.062 35.4305 20.6356 36.4829 19.5837C37.5353 18.5317 38.962 17.9401 40.45 17.9385Z" fill="#5959CB"/>
<path d="M44.6375 29.9255C44.5131 29.9255 44.3938 29.9749 44.3059 30.0628C44.2179 30.1508 44.1685 30.2701 44.1685 30.3945V41.9545H42.7325C42.3909 41.4448 41.8939 41.059 41.3155 40.8545V37.0545C41.3156 36.9929 41.3035 36.9318 41.2799 36.8749C41.2564 36.818 41.2218 36.7662 41.1783 36.7227C41.1347 36.6791 41.083 36.6446 41.0261 36.621C40.9691 36.5975 40.9081 36.5854 40.8465 36.5855H38.788V31.6855C38.7881 31.6239 38.776 31.5629 38.7525 31.506C38.729 31.4491 38.6945 31.3974 38.651 31.3539C38.6074 31.3103 38.5558 31.2758 38.4989 31.2522C38.442 31.2286 38.3811 31.2165 38.3195 31.2165H33.2645C33.2029 31.2165 33.142 31.2286 33.0851 31.2522C33.0282 31.2758 32.9766 31.3103 32.933 31.3539C32.8895 31.3974 32.855 31.4491 32.8315 31.506C32.808 31.5629 32.7959 31.6239 32.796 31.6855V36.5855H30.737C30.6754 36.5855 30.6145 36.5976 30.5576 36.6212C30.5007 36.6448 30.4491 36.6793 30.4055 36.7229C30.362 36.7664 30.3275 36.8181 30.304 36.875C30.2805 36.9319 30.2684 36.9929 30.2685 37.0545V41.9545H27.415V28.676H34.015C34.1367 28.672 34.252 28.6209 34.3367 28.5334C34.4214 28.4459 34.4687 28.3289 34.4687 28.2072C34.4687 28.0855 34.4214 27.9685 34.3367 27.881C34.252 27.7936 34.1367 27.7424 34.015 27.7385H26.946C26.8217 27.7385 26.7026 27.7878 26.6147 27.8757C26.5269 27.9635 26.4775 28.0827 26.4775 28.207V30.9C26.4655 30.9 26.455 30.8965 26.443 30.8965H24.4115C22.4464 30.8987 20.5624 31.6804 19.1729 33.0701C17.7834 34.4597 17.002 36.3438 17 38.309V41.9205C17.0003 42.1781 17.1028 42.4252 17.285 42.6073C17.4673 42.7895 17.7143 42.8918 17.972 42.892H19.286C19.1409 43.5108 19.209 44.1604 19.4793 44.7357C19.7495 45.3109 20.2061 45.7781 20.775 46.0615H17.469C17.3446 46.0615 17.2253 46.1109 17.1374 46.1988C17.0494 46.2868 17 46.4061 17 46.5305C17 46.6549 17.0494 46.7741 17.1374 46.8621C17.2253 46.9501 17.3446 46.9995 17.469 46.9995H44.6375C44.7619 46.9995 44.8812 46.9501 44.9691 46.8621C45.0571 46.7741 45.1065 46.6549 45.1065 46.5305C45.1065 46.4061 45.0571 46.2868 44.9691 46.1988C44.8812 46.1109 44.7619 46.0615 44.6375 46.0615H41.65C42.2189 45.7781 42.6755 45.3109 42.9457 44.7357C43.216 44.1604 43.2841 43.5108 43.139 42.892H44.639C44.7006 42.892 44.7615 42.88 44.8184 42.8564C44.8753 42.8329 44.927 42.7984 44.9706 42.7549C45.0142 42.7114 45.0487 42.6597 45.0723 42.6029C45.0959 42.546 45.108 42.485 45.108 42.4235V30.3945C45.108 30.3327 45.0958 30.2716 45.0722 30.2146C45.0485 30.1576 45.0138 30.1059 44.9701 30.0623C44.9264 30.0187 44.8745 29.9842 44.8174 29.9607C44.7604 29.9373 44.6992 29.9253 44.6375 29.9255ZM40.3775 40.6915H40.3725C39.9735 40.692 39.5792 40.7769 39.2154 40.9407C38.8516 41.1044 38.5265 41.3432 38.2615 41.6415H36.2615V37.5215H40.378L40.3775 40.6915ZM33.7335 32.15H37.85V36.2665H33.7335V32.15ZM31.206 37.52H35.323V41.6375H31.206V37.52ZM17.972 41.9545C17.9675 41.9545 17.963 41.9537 17.9588 41.952C17.9547 41.9503 17.9508 41.9478 17.9476 41.9447C17.9444 41.9415 17.9419 41.9378 17.9401 41.9336C17.9384 41.9294 17.9375 41.925 17.9375 41.9205V38.309C17.9395 36.5926 18.6222 34.9471 19.8359 33.7335C21.0496 32.5199 22.6951 31.8373 24.4115 31.8355H26.443C26.4521 31.8355 26.4608 31.839 26.4672 31.8454C26.4737 31.8518 26.4774 31.8604 26.4775 31.8695V41.9195C26.4775 41.924 26.4766 41.9284 26.4749 41.9326C26.4731 41.9368 26.4706 41.9405 26.4674 41.9437C26.4642 41.9468 26.4603 41.9493 26.4562 41.951C26.452 41.9527 26.4475 41.9535 26.443 41.9535H24.409C24.1502 41.5649 23.7993 41.2462 23.3877 41.0258C22.9761 40.8054 22.5164 40.6901 22.0495 40.6901C21.5826 40.6901 21.1229 40.8054 20.7113 41.0258C20.2997 41.2462 19.9488 41.5649 19.69 41.9535L17.972 41.9545ZM20.15 43.529C20.1501 43.2709 20.2032 43.0157 20.306 42.779C20.3949 42.7043 20.4523 42.5987 20.4665 42.4835C20.7183 42.1041 21.0981 41.828 21.5366 41.7055C21.9751 41.583 22.443 41.6223 22.855 41.8162C23.2669 42.0102 23.5953 42.3458 23.7803 42.7618C23.9653 43.1778 23.9945 43.6465 23.8626 44.0822C23.7307 44.518 23.4465 44.8918 23.0618 45.1353C22.6771 45.3789 22.2177 45.476 21.7674 45.4089C21.3171 45.3418 20.9059 45.1149 20.609 44.7698C20.312 44.4247 20.1491 43.9843 20.15 43.529ZM23.3255 46.0615C23.8947 45.7784 24.3514 45.3113 24.6217 44.7359C24.8919 44.1605 24.9597 43.5107 24.814 42.892H26.444C26.546 42.8912 26.6473 42.8744 26.744 42.842C26.8074 42.8741 26.8774 42.8912 26.9485 42.892H37.609C37.4641 43.511 37.5325 44.1608 37.8031 44.7361C38.0737 45.3114 38.5307 45.7784 39.1 46.0615H23.3255ZM40.3755 45.4295C39.9997 45.4295 39.6324 45.318 39.3199 45.1093C39.0075 44.9005 38.7639 44.6037 38.6201 44.2566C38.4763 43.9094 38.4387 43.5274 38.512 43.1588C38.5853 42.7902 38.7663 42.4517 39.032 42.186C39.2977 41.9202 39.6363 41.7393 40.0048 41.666C40.3734 41.5927 40.7554 41.6303 41.1026 41.7741C41.4498 41.9179 41.7465 42.1614 41.9553 42.4739C42.1641 42.7863 42.2755 43.1537 42.2755 43.5295C42.2755 43.7792 42.2263 44.0265 42.1306 44.2573C42.0349 44.488 41.8947 44.6976 41.7179 44.874C41.5412 45.0505 41.3314 45.1904 41.1005 45.2857C40.8697 45.381 40.6223 45.4299 40.3725 45.4295H40.3755Z" fill="#5959CB"/>
<path d="M24.261 38.4695C24.3226 38.4695 24.3837 38.4574 24.4407 38.4339C24.4976 38.4103 24.5494 38.3757 24.5929 38.3321C24.6365 38.2885 24.671 38.2367 24.6946 38.1797C24.7181 38.1227 24.7301 38.0616 24.73 38V33.894C24.73 33.8324 24.7179 33.7714 24.6943 33.7145C24.6707 33.6576 24.6362 33.6059 24.5926 33.5623C24.5491 33.5188 24.4974 33.4842 24.4405 33.4607C24.3836 33.4371 24.3226 33.425 24.261 33.425C23.0898 33.4263 21.9669 33.8921 21.1386 34.7203C20.3104 35.5484 19.8444 36.6712 19.843 37.8425C19.8523 37.8947 19.8523 37.9482 19.843 38.0005C19.8429 38.0621 19.855 38.1231 19.8786 38.18C19.9021 38.237 19.9366 38.2887 19.9802 38.3323C20.0238 38.3758 20.0755 38.4104 20.1324 38.4339C20.1894 38.4575 20.2504 38.4695 20.312 38.4695H24.261ZM23.792 34.3945V37.532H20.7945C20.866 36.7472 21.2013 36.0098 21.7457 35.4401C22.29 34.8703 23.0113 34.5017 23.792 34.3945ZM40.45 24.0205H43.829C43.9534 24.0205 44.0727 23.9711 44.1606 23.8831C44.2486 23.7951 44.298 23.6759 44.298 23.5515C44.298 23.4271 44.2486 23.3078 44.1606 23.2198C44.0727 23.1319 43.9534 23.0825 43.829 23.0825H40.919V20.173C40.921 20.1101 40.9104 20.0475 40.8878 19.9888C40.8652 19.9302 40.831 19.8767 40.7872 19.8315C40.7435 19.7863 40.6911 19.7504 40.6332 19.7258C40.5754 19.7013 40.5131 19.6887 40.4502 19.6887C40.3874 19.6887 40.3251 19.7013 40.2672 19.7258C40.2093 19.7504 40.157 19.7863 40.1132 19.8315C40.0695 19.8767 40.0353 19.9302 40.0127 19.9888C39.99 20.0475 39.9794 20.1101 39.9815 20.173V23.55C39.9812 23.6117 39.9931 23.6728 40.0166 23.7299C40.04 23.7869 40.0745 23.8388 40.118 23.8825C40.1615 23.9263 40.2133 23.9609 40.2702 23.9846C40.3272 24.0083 40.3883 24.0205 40.45 24.0205Z" fill="#5959CB"/>
</svg>
