<svg width="792" height="792" viewBox="0 0 792 792" fill="none" xmlns="http://www.w3.org/2000/svg">
<path opacity="0.2" d="M449 396C449 402.96 447.629 409.852 444.966 416.282C442.302 422.712 438.398 428.555 433.477 433.477C428.555 438.398 422.712 442.302 416.282 444.966C409.852 447.629 402.96 449 396 449C389.04 449 382.148 447.629 375.718 444.966C369.288 442.302 363.445 438.398 358.523 433.477C353.602 428.555 349.698 422.712 347.034 416.282C344.371 409.852 343 402.96 343 396C343 389.04 344.371 382.148 347.034 375.718C349.698 369.288 353.602 363.445 358.523 358.523C363.445 353.602 369.288 349.698 375.718 347.034C382.148 344.371 389.04 343 396 343C402.96 343 409.852 344.371 416.282 347.034C422.712 349.698 428.555 353.602 433.477 358.523C438.398 363.445 442.302 369.288 444.966 375.718C447.629 382.148 449 389.04 449 396L449 396Z" stroke="#5959CB" stroke-width="2"/>
<path opacity="0.2" d="M478 396C478 406.768 475.879 417.431 471.758 427.38C467.637 437.329 461.597 446.368 453.983 453.983C446.368 461.597 437.329 467.637 427.38 471.758C417.431 475.879 406.768 478 396 478C385.232 478 374.569 475.879 364.62 471.758C354.671 467.637 345.632 461.597 338.017 453.983C330.403 446.368 324.363 437.329 320.242 427.38C316.121 417.431 314 406.768 314 396C314 385.232 316.121 374.569 320.242 364.62C324.363 354.671 330.403 345.632 338.017 338.017C345.632 330.403 354.671 324.363 364.62 320.242C374.569 316.121 385.232 314 396 314C406.768 314 417.431 316.121 427.38 320.242C437.329 324.363 446.368 330.403 453.983 338.017C461.597 345.632 467.637 354.671 471.758 364.62C475.879 374.569 478 385.232 478 396L478 396Z" stroke="#5959CB" stroke-width="2"/>
<path opacity="0.2" d="M516 396C516 411.759 512.896 427.363 506.866 441.922C500.835 456.481 491.996 469.71 480.853 480.853C469.71 491.996 456.481 500.835 441.922 506.866C427.363 512.896 411.759 516 396 516C380.241 516 364.637 512.896 350.078 506.866C335.519 500.835 322.29 491.996 311.147 480.853C300.004 469.71 291.165 456.481 285.134 441.922C279.104 427.363 276 411.759 276 396C276 380.241 279.104 364.637 285.134 350.078C291.165 335.519 300.004 322.29 311.147 311.147C322.29 300.004 335.519 291.165 350.078 285.134C364.637 279.104 380.241 276 396 276C411.759 276 427.363 279.104 441.922 285.134C456.481 291.165 469.71 300.004 480.853 311.147C491.996 322.29 500.835 335.519 506.866 350.078C512.896 364.637 516 380.241 516 396L516 396Z" stroke="#5959CB" stroke-width="2"/>
<path opacity="0.2" d="M568 396C568 418.587 563.551 440.954 554.907 461.822C546.263 482.69 533.594 501.651 517.622 517.622C501.651 533.594 482.69 546.263 461.822 554.907C440.954 563.551 418.587 568 396 568C373.413 568 351.046 563.551 330.178 554.907C309.31 546.263 290.349 533.594 274.378 517.622C258.406 501.651 245.737 482.69 237.093 461.822C228.449 440.954 224 418.587 224 396C224 373.413 228.449 351.046 237.093 330.178C245.737 309.31 258.406 290.349 274.378 274.378C290.349 258.406 309.31 245.737 330.178 237.093C351.046 228.449 373.413 224 396 224C418.587 224 440.954 228.449 461.822 237.093C482.69 245.737 501.651 258.406 517.622 274.378C533.594 290.349 546.263 309.31 554.907 330.178C563.551 351.046 568 373.413 568 396L568 396Z" stroke="#5959CB" stroke-width="2"/>
<path opacity="0.2" d="M636 396C636 427.517 629.792 458.726 617.731 487.844C605.67 516.962 587.992 543.42 565.706 565.706C543.42 587.992 516.962 605.67 487.844 617.731C458.726 629.792 427.517 636 396 636C364.483 636 333.274 629.792 304.156 617.731C275.038 605.67 248.58 587.992 226.294 565.706C204.008 543.42 186.33 516.962 174.269 487.844C162.208 458.726 156 427.517 156 396C156 364.483 162.208 333.274 174.269 304.156C186.33 275.038 204.008 248.58 226.294 226.294C248.58 204.008 275.038 186.33 304.156 174.269C333.274 162.208 364.483 156 396 156C427.517 156 458.726 162.208 487.844 174.269C516.962 186.33 543.42 204.008 565.706 226.294C587.992 248.58 605.67 275.038 617.731 304.156C629.792 333.274 636 364.483 636 396L636 396Z" stroke="#5959CB" stroke-width="2"/>
<path opacity="0.2" d="M714 396C714 437.76 705.775 479.112 689.794 517.693C673.813 556.275 650.389 591.331 620.86 620.86C591.331 650.389 556.275 673.813 517.693 689.794C479.112 705.775 437.76 714 396 714C354.24 714 312.888 705.775 274.307 689.794C235.725 673.813 200.669 650.389 171.14 620.86C141.611 591.331 118.187 556.275 102.206 517.693C86.2253 479.112 78 437.76 78 396C78 354.24 86.2253 312.888 102.206 274.307C118.187 235.725 141.611 200.669 171.14 171.14C200.669 141.611 235.725 118.187 274.307 102.206C312.888 86.2253 354.24 78 396 78C437.76 78 479.112 86.2253 517.693 102.206C556.275 118.187 591.331 141.611 620.86 171.14C650.389 200.669 673.813 235.725 689.794 274.307C705.775 312.888 714 354.24 714 396L714 396Z" stroke="#5959CB" stroke-width="2"/>
<path opacity="0.2" d="M791 396C791 447.872 780.783 499.236 760.932 547.16C741.082 595.084 711.986 638.628 675.307 675.307C638.628 711.986 595.084 741.082 547.16 760.932C499.236 780.783 447.872 791 396 791C344.128 791 292.764 780.783 244.84 760.932C196.916 741.082 153.372 711.986 116.693 675.307C80.0137 638.628 50.9182 595.084 31.0676 547.16C11.217 499.236 0.999995 447.872 1 396C1 344.128 11.217 292.764 31.0676 244.84C50.9182 196.916 80.0137 153.372 116.693 116.693C153.372 80.0137 196.916 50.9182 244.84 31.0676C292.764 11.217 344.128 0.999993 396 1C447.872 1.00001 499.236 11.217 547.16 31.0676C595.084 50.9182 638.628 80.0137 675.307 116.693C711.986 153.372 741.082 196.916 760.932 244.84C780.783 292.764 791 344.128 791 396L791 396Z" stroke="#5959CB" stroke-width="2"/>
<g opacity="0.5">
<path d="M39.8576 243.497C39.7934 243.646 39.6967 243.778 39.5747 243.884C39.4526 243.991 39.3083 244.068 39.1523 244.111L31.1021 246.307C30.8607 246.376 30.603 246.359 30.373 246.258C30.143 246.158 29.955 245.981 29.8411 245.757L26.05 238.193C25.9208 237.936 25.8989 237.638 25.9893 237.365C26.0797 237.092 26.2748 236.866 26.5319 236.737C26.7889 236.607 27.0867 236.585 27.3598 236.676C27.6329 236.766 27.859 236.961 27.9882 237.218L31.3734 243.979L38.5672 242.012C38.766 241.954 38.9771 241.955 39.1756 242.013C39.3742 242.071 39.5519 242.186 39.6876 242.342C39.8234 242.498 39.9115 242.69 39.9417 242.895C39.9718 243.099 39.9426 243.308 39.8576 243.497Z" fill="#5959CB"/>
</g>
<g opacity="0.5">
<path d="M623.482 343.477C623.419 343.328 623.389 343.167 623.396 343.005C623.402 342.844 623.445 342.685 623.521 342.542L627.457 335.185C627.573 334.962 627.763 334.787 627.994 334.689C628.225 334.591 628.483 334.576 628.723 334.647L636.824 337.09C637.099 337.173 637.331 337.362 637.467 337.615C637.604 337.868 637.634 338.165 637.551 338.441C637.468 338.716 637.279 338.948 637.026 339.084C636.773 339.22 636.476 339.251 636.2 339.168L628.962 336.982L625.448 343.56C625.354 343.744 625.208 343.897 625.029 344.001C624.85 344.105 624.645 344.156 624.439 344.147C624.232 344.139 624.032 344.071 623.863 343.952C623.693 343.833 623.561 343.668 623.482 343.477Z" fill="#5959CB"/>
</g>
<g opacity="0.5">
<path d="M599.774 140.883C599.881 141.004 599.959 141.148 600.003 141.304C600.047 141.46 600.055 141.624 600.027 141.783L598.563 149.998C598.521 150.245 598.395 150.471 598.206 150.636C598.017 150.8 597.776 150.894 597.525 150.902L589.066 151.087C588.779 151.093 588.5 150.985 588.292 150.787C588.084 150.588 587.963 150.315 587.957 150.027C587.95 149.74 588.058 149.461 588.257 149.253C588.455 149.045 588.728 148.925 589.016 148.918L596.575 148.755L597.88 141.412C597.913 141.208 598.003 141.017 598.141 140.863C598.279 140.709 598.458 140.597 598.658 140.541C598.857 140.485 599.068 140.488 599.266 140.549C599.464 140.609 599.64 140.725 599.774 140.883Z" fill="#5959CB"/>
</g>
<g opacity="0.5">
<path d="M233.655 316.709C233.741 316.572 233.857 316.456 233.994 316.37C234.131 316.284 234.286 316.23 234.447 316.212L242.741 315.295C242.99 315.265 243.242 315.322 243.453 315.457C243.665 315.592 243.823 315.796 243.901 316.035L246.469 324.096C246.556 324.37 246.532 324.668 246.4 324.924C246.268 325.18 246.04 325.372 245.766 325.46C245.492 325.548 245.195 325.523 244.939 325.391C244.683 325.26 244.49 325.032 244.403 324.758L242.11 317.553L234.698 318.376C234.493 318.403 234.284 318.369 234.097 318.281C233.91 318.192 233.753 318.052 233.643 317.876C233.533 317.701 233.476 317.498 233.478 317.291C233.48 317.084 233.541 316.882 233.655 316.709Z" fill="#5959CB"/>
</g>
</svg>
