<svg width="27" height="28" viewBox="0 0 27 28" fill="none" xmlns="http://www.w3.org/2000/svg">
<path d="M20.9739 11.9433C20.9745 12.1112 20.9388 12.2771 20.8694 12.4288C20.8 12.5805 20.6988 12.7142 20.5731 12.82L14.0731 18.2482C13.8793 18.4135 13.6361 18.5038 13.3852 18.5038C13.1343 18.5038 12.8911 18.4135 12.6973 18.2482L6.19726 12.6289C5.97603 12.4381 5.8369 12.164 5.81049 11.8668C5.78408 11.5697 5.87255 11.2738 6.05643 11.0443C6.24031 10.8147 6.50455 10.6704 6.79101 10.643C7.07748 10.6156 7.3627 10.7074 7.58393 10.8982L13.3906 15.9218L19.1973 11.0667C19.3563 10.9293 19.5499 10.842 19.7553 10.8152C19.9606 10.7883 20.1691 10.8231 20.356 10.9153C20.5429 11.0075 20.7004 11.1534 20.8099 11.3355C20.9194 11.5177 20.9763 11.7286 20.9739 11.9433Z" fill="black"/>
</svg>
