<svg width="1220" height="699" viewBox="0 0 1220 699" fill="none" xmlns="http://www.w3.org/2000/svg">
<path opacity="0.5" fill-rule="evenodd" clip-rule="evenodd" d="M43.8916 100.95C33.5121 104.728 22.0352 99.3764 18.2574 88.9969L1.8404 43.8916C-1.93745 33.5121 3.41429 22.0352 13.7939 18.2574L58.8991 1.84041C69.2787 -1.93744 80.7555 3.4143 84.5334 13.7939L100.95 58.8991C104.728 69.2787 99.3764 80.7555 88.9969 84.5334L43.8916 100.95Z" fill="#FEC2F6"/>
<path fill-rule="evenodd" clip-rule="evenodd" d="M175.231 666.698C174.802 668.298 173.157 669.248 171.557 668.819L161.898 666.231C160.297 665.802 159.348 664.157 159.776 662.557L162.365 652.898C162.793 651.297 164.438 650.348 166.039 650.776L175.698 653.365C177.298 653.793 178.248 655.438 177.819 657.039L175.231 666.698Z" fill="#AF9490"/>
<path opacity="0.5" fill-rule="evenodd" clip-rule="evenodd" d="M848.289 697.216C837.91 700.994 826.433 695.642 822.655 685.262L816.841 669.288C813.063 658.908 818.415 647.431 828.794 643.653L844.769 637.839C855.149 634.061 866.626 639.413 870.403 649.792L876.218 665.767C879.996 676.147 874.644 687.624 864.264 691.401L848.289 697.216Z" fill="#98C1D9"/>
<path fill-rule="evenodd" clip-rule="evenodd" d="M1217.78 683.347C1217.61 684.996 1216.37 685.561 1215.01 684.611L1206.46 678.62C1205.1 677.669 1204.14 675.563 1204.31 673.915L1205.61 661.186C1205.78 659.537 1207.02 658.972 1208.37 659.922L1216.93 665.913C1218.29 666.864 1219.25 668.97 1219.08 670.618L1217.78 683.347Z" fill="#7047EB"/>
<path opacity="0.5" fill-rule="evenodd" clip-rule="evenodd" d="M647.603 479.764C638.781 482.975 629.026 478.426 625.814 469.603C622.603 460.781 627.152 451.025 635.975 447.814C644.797 444.603 654.553 449.152 657.764 457.975C660.975 466.797 656.426 476.553 647.603 479.764Z" fill="#AED4B3"/>
</svg>
