<svg width="798" height="326" viewBox="0 0 798 326" fill="none" xmlns="http://www.w3.org/2000/svg">
<path opacity="0.1" d="M257.783 51.7437C301.911 50.3773 348.294 51.901 394.282 56.2281C440.269 60.5552 484.958 67.6007 525.794 76.9613C566.632 86.3222 602.811 97.8132 632.267 110.774C661.731 123.739 683.858 137.906 697.426 152.448C710.989 166.983 715.682 181.542 711.454 195.335C707.213 209.168 694.038 222.118 672.504 233.394C650.985 244.663 621.622 253.995 586.077 260.845C550.536 267.694 509.53 271.923 465.401 273.29C421.272 274.656 374.889 273.132 328.902 268.805C282.914 264.478 238.226 257.433 197.389 248.072C156.551 238.711 120.373 227.22 90.9164 214.259C61.4528 201.294 39.3254 187.128 25.757 172.586C12.1946 158.05 7.50103 143.491 11.7293 129.699C15.9701 115.865 29.1453 102.915 50.6792 91.639C72.1986 80.3704 101.562 71.0386 137.107 64.1888C172.648 57.3398 213.653 53.1101 257.783 51.7437L257.783 51.7437Z" stroke="#5959CB"/>
<path opacity="0.1" d="M268.156 237.086C302.411 243.13 338.75 247.175 375.098 248.989C411.446 250.803 447.086 250.351 479.984 247.659C512.883 244.967 542.387 240.088 566.813 233.306C591.246 226.522 610.085 217.975 622.291 208.179C634.491 198.387 639.765 187.597 638.032 176.415C636.292 165.19 627.506 153.626 611.993 142.409C596.494 131.201 574.659 120.615 547.717 111.264C520.779 101.915 489.284 93.991 455.028 87.9471C420.773 81.9032 384.433 77.8586 348.085 76.0445C311.738 74.2304 276.097 74.6827 243.199 77.3745C210.3 80.0665 180.797 84.945 156.371 91.7271C131.937 98.5113 113.098 107.058 100.892 116.855C88.6927 126.646 83.4184 137.436 85.1518 148.619C86.8918 159.843 95.6777 171.408 111.19 182.625C126.689 193.832 148.525 204.419 175.467 213.769C202.404 223.118 233.9 231.042 268.156 237.086L268.156 237.086Z" stroke="#5959CB"/>
<path opacity="0.1" d="M293.599 216.665C318.529 221.064 344.977 224.007 371.43 225.328C397.884 226.648 423.822 226.319 447.763 224.36C471.706 222.401 493.174 218.85 510.944 213.916C528.722 208.98 542.416 202.765 551.281 195.65C560.139 188.54 563.941 180.73 562.689 172.654C561.431 164.537 555.071 156.147 543.79 147.989C532.522 139.842 516.64 132.141 497.035 125.336C477.434 118.534 454.515 112.767 429.584 108.368C404.654 103.97 378.207 101.026 351.753 99.7059C325.299 98.3856 299.361 98.7148 275.42 100.674C251.478 102.633 230.01 106.183 212.239 111.117C194.461 116.053 180.768 122.269 171.903 129.384C163.045 136.493 159.242 144.304 160.494 152.379C161.752 160.496 168.113 168.886 179.394 177.044C190.662 185.192 206.543 192.893 226.148 199.697C245.749 206.5 268.669 212.266 293.599 216.665L293.599 216.665Z" stroke="#5959CB"/>
<path opacity="0.1" d="M245.369 38.4398C294.776 36.9099 346.707 38.6159 398.196 43.4606C449.684 48.3052 499.718 56.1935 545.44 66.6739C591.163 77.1546 631.671 90.0205 664.653 104.533C697.643 119.049 722.424 134.914 737.623 151.203C752.815 167.486 758.084 183.807 753.341 199.276C748.586 214.786 733.819 229.295 709.705 241.922C685.606 254.541 652.726 264.99 612.928 272.66C573.134 280.328 527.222 285.064 477.814 286.594C428.407 288.124 376.476 286.418 324.987 281.573C273.499 276.728 223.465 268.84 177.743 258.36C132.02 247.879 91.5122 235.013 58.5298 220.5C25.54 205.984 0.75877 190.119 -14.4398 173.83C-29.6324 157.548 -34.9004 141.226 -30.1581 125.757C-25.4033 110.247 -10.6357 95.7389 13.4781 83.1118C37.5774 70.4922 70.4574 60.0433 110.256 52.3739C150.05 44.7053 195.961 39.9696 245.369 38.4398L245.369 38.4398Z" stroke="#5959CB"/>
<path opacity="0.1" d="M235.846 28.2343C289.303 26.579 345.49 28.4248 401.198 33.6665C456.906 38.9082 511.04 47.4429 560.51 58.7823C609.981 70.122 653.809 84.0427 689.497 99.7457C725.191 115.452 752.008 132.619 768.458 150.248C784.901 167.871 790.609 185.544 785.473 202.299C780.324 219.095 764.335 234.799 738.242 248.463C712.163 262.119 676.586 273.425 633.525 281.723C590.468 290.02 540.794 295.144 487.336 296.799C433.879 298.454 377.693 296.608 321.985 291.367C266.277 286.125 212.142 277.59 162.673 266.251C113.202 254.911 69.3732 240.991 33.6859 225.288C-2.00874 209.581 -28.8258 192.414 -45.2749 174.785C-61.718 157.162 -67.4267 139.489 -62.2901 122.734C-57.141 105.938 -41.1519 90.2339 -15.059 76.5705C11.0194 62.9146 46.5972 51.6087 89.6578 43.3106C132.714 35.0133 182.389 29.8895 235.847 28.2342L235.846 28.2343Z" stroke="#5959CB"/>
</svg>
