<svg width="1440" height="429" viewBox="0 0 1440 429" fill="none" xmlns="http://www.w3.org/2000/svg">
<path opacity="0.1" d="M-0.5 1C652 203.5 566 -38 808.5 107C1051 252 1088 181 1178 250.5C1268 320 1395 248.5 1440.5 302" stroke="#5959CB"/>
<path opacity="0.1" d="M-1 19C651.5 221.5 565.5 -20 808 125C1050.5 270 1087.5 199 1177.5 268.5C1267.5 338 1394.5 266.5 1440 320" stroke="#5959CB"/>
<path opacity="0.1" d="M-1.5 37C651 239.5 565 -2 807.5 143C1050 288 1087 217 1177 286.5C1267 356 1394 284.5 1439.5 338" stroke="#5959CB"/>
<path opacity="0.1" d="M-2 55C650.5 257.5 564.5 16 807 161C1049.5 306 1086.5 235 1176.5 304.5C1266.5 374 1393.5 302.5 1439 356" stroke="#5959CB"/>
<path opacity="0.1" d="M-2.5 73C650 275.5 564 34 806.5 179C1049 324 1086 253 1176 322.5C1266 392 1393 320.5 1438.5 374" stroke="#5959CB"/>
<path opacity="0.1" d="M-3 91C649.5 293.5 563.5 52 806 197C1048.5 342 1085.5 271 1175.5 340.5C1265.5 410 1392.5 338.5 1438 392" stroke="#5959CB"/>
<path opacity="0.1" d="M-3.5 109C649 311.5 563 70 805.5 215C1048 360 1085 289 1175 358.5C1265 428 1392 356.5 1437.5 410" stroke="#5959CB"/>
<path opacity="0.1" d="M-4 127C648.5 329.5 562.5 88 805 233C1047.5 378 1084.5 307 1174.5 376.5C1264.5 446 1391.5 374.5 1437 428" stroke="#5959CB"/>
</svg>
