<svg width="1334" height="815" viewBox="0 0 1334 815" fill="none" xmlns="http://www.w3.org/2000/svg">
<path opacity="0.5" fill-rule="evenodd" clip-rule="evenodd" d="M11.8916 150.95C1.51207 154.728 -9.96478 149.376 -13.7426 138.997L-30.1596 93.8915C-33.9374 83.512 -28.5857 72.0351 -18.2061 68.2573L26.8991 51.8403C37.2787 48.0624 48.7555 53.4142 52.5334 63.7937L68.9503 108.899C72.7282 119.279 67.3764 130.755 56.9969 134.533L11.8916 150.95Z" fill="#FEC2F6"/>
<path opacity="0.5" fill-rule="evenodd" clip-rule="evenodd" d="M536.289 203.216C525.91 206.994 514.433 201.642 510.655 191.262L504.841 175.287C501.063 164.908 506.415 153.431 516.794 149.653L532.769 143.839C543.149 140.061 554.626 145.413 558.403 155.792L564.218 171.767C567.996 182.147 562.644 193.624 552.264 197.401L536.289 203.216Z" fill="#98C1D9"/>
<path fill-rule="evenodd" clip-rule="evenodd" d="M1056.6 809.356C1055.16 808.528 1054.67 806.693 1055.5 805.258L1060.5 796.598C1061.33 795.163 1063.16 794.672 1064.6 795.5L1073.26 800.5C1074.69 801.328 1075.18 803.163 1074.36 804.598L1069.36 813.258C1068.53 814.693 1066.69 815.185 1065.26 814.356L1056.6 809.356Z" fill="#3E7FFF"/>
<path fill-rule="evenodd" clip-rule="evenodd" d="M765.231 362.698C764.802 364.298 763.157 365.248 761.557 364.819L751.898 362.231C750.297 361.802 749.348 360.157 749.776 358.557L752.365 348.898C752.793 347.297 754.438 346.348 756.039 346.776L765.698 349.365C767.298 349.793 768.248 351.438 767.819 353.039L765.231 362.698Z" fill="#7047EB"/>
<path fill-rule="evenodd" clip-rule="evenodd" d="M146.231 545.698C145.802 547.298 144.157 548.248 142.557 547.819L132.898 545.231C131.297 544.802 130.348 543.157 130.776 541.557L133.365 531.898C133.793 530.297 135.438 529.348 137.039 529.776L146.698 532.365C148.298 532.793 149.248 534.438 148.819 536.039L146.231 545.698Z" fill="#AF9490"/>
<path opacity="0.19" fill-rule="evenodd" clip-rule="evenodd" d="M1258 90C1250.27 90 1244 83.732 1244 76V14C1244 6.26801 1250.27 0 1258 0H1320C1327.73 0 1334 6.26801 1334 14V76C1334 83.732 1327.73 90 1320 90H1258Z" fill="#9ECBFF"/>
<path opacity="0.5" fill-rule="evenodd" clip-rule="evenodd" d="M714.606 734.762C705.783 737.973 696.028 733.424 692.817 724.601C689.605 715.779 694.154 706.023 702.977 702.812C711.8 699.601 721.555 704.15 724.766 712.973C727.977 721.795 723.428 731.551 714.606 734.762Z" fill="#AED4B3"/>
</svg>
