<svg width="27" height="27" viewBox="0 0 27 27" fill="none" xmlns="http://www.w3.org/2000/svg">
<path d="M11.1319 5.53095C11.2937 5.5304 11.4536 5.56612 11.5999 5.63548C11.7461 5.70485 11.8749 5.8061 11.9769 5.93179L17.2094 12.4318C17.3687 12.6256 17.4558 12.8688 17.4558 13.1197C17.4558 13.3706 17.3687 13.6138 17.2094 13.8076L11.7927 20.3076C11.6088 20.5289 11.3446 20.668 11.0581 20.6944C10.7717 20.7208 10.4864 20.6323 10.2652 20.4485C10.044 20.2646 9.90485 20.0003 9.87844 19.7139C9.85203 19.4274 9.9405 19.1422 10.1244 18.921L14.9669 13.1143L10.2869 7.30762C10.1544 7.1486 10.0703 6.95496 10.0444 6.74962C10.0185 6.54428 10.052 6.33582 10.1409 6.14891C10.2298 5.96201 10.3704 5.80448 10.546 5.69496C10.7216 5.58545 10.9249 5.52853 11.1319 5.53095Z" fill="black"/>
</svg>
