<svg width="69" height="69" viewBox="0 0 69 69" fill="none" xmlns="http://www.w3.org/2000/svg">
<g opacity="0.6">
<path d="M31.74 49.68C21.804 49.68 13.8 41.676 13.8 31.74C13.8 21.804 21.804 13.8 31.74 13.8C41.676 13.8 49.68 21.804 49.68 31.74C49.68 41.676 41.676 49.68 31.74 49.68ZM31.74 16.56C23.322 16.56 16.56 23.322 16.56 31.74C16.56 40.158 23.322 46.92 31.74 46.92C40.158 46.92 46.92 40.158 46.92 31.74C46.92 23.322 40.158 16.56 31.74 16.56Z" fill="black"/>
<path d="M45.1012 43.1484L57.4936 55.5408L55.5423 57.4922L43.1499 45.0998L45.1012 43.1484Z" fill="black"/>
</g>
</svg>
