<svg width="198" height="30" viewBox="0 0 198 30" fill="none" xmlns="http://www.w3.org/2000/svg">
<circle cx="15" cy="15" r="15" fill="#5959CB" fill-opacity="0.2"/>
<path d="M11.2485 6C8.35429 6 6 8.35646 6 11.2515V18.7515C6 21.6457 8.35646 24 11.2515 24H18.7515C21.6457 24 24 21.6435 24 18.7485V11.2485C24 8.35429 21.6435 6 18.7485 6H11.2485ZM20.25 9C20.664 9 21 9.336 21 9.75C21 10.164 20.664 10.5 20.25 10.5C19.836 10.5 19.5 10.164 19.5 9.75C19.5 9.336 19.836 9 20.25 9ZM15 10.5C17.4818 10.5 19.5 12.5182 19.5 15C19.5 17.4818 17.4818 19.5 15 19.5C12.5182 19.5 10.5 17.4818 10.5 15C10.5 12.5182 12.5182 10.5 15 10.5ZM15 12C14.2044 12 13.4413 12.3161 12.8787 12.8787C12.3161 13.4413 12 14.2044 12 15C12 15.7956 12.3161 16.5587 12.8787 17.1213C13.4413 17.6839 14.2044 18 15 18C15.7956 18 16.5587 17.6839 17.1213 17.1213C17.6839 16.5587 18 15.7956 18 15C18 14.2044 17.6839 13.4413 17.1213 12.8787C16.5587 12.3161 15.7956 12 15 12Z" fill="#5959CB"/>
<circle cx="71" cy="15" r="15" fill="#5959CB" fill-opacity="0.2"/>
<path d="M66.5 23.25H62.75V12H66.5V23.25ZM64.6257 10.5C63.5885 10.5 62.75 9.65925 62.75 8.62425C62.75 7.58925 63.59 6.75 64.6257 6.75C65.6593 6.75 66.5 7.59075 66.5 8.62425C66.5 9.65925 65.6593 10.5 64.6257 10.5ZM80 23.25H76.3948V17.775C76.3948 16.4693 76.37 14.79 74.5205 14.79C72.6433 14.79 72.3545 16.212 72.3545 17.6805V23.25H68.75V11.9918H72.2105V13.53H72.2593C72.7408 12.645 73.9175 11.712 75.6725 11.712C79.325 11.712 80 14.0438 80 17.0753C80 17.0752 80 23.25 80 23.25Z" fill="#5959CB"/>
<circle cx="127" cy="15" r="15" fill="#5959CB" fill-opacity="0.2"/>
<path d="M136.75 8.95265C136.032 9.2714 135.261 9.4859 134.452 9.58265C135.278 9.08765 135.912 8.3039 136.211 7.3694C135.438 7.82765 134.582 8.16065 133.67 8.34065C132.94 7.5629 131.9 7.0769 130.75 7.0769C128.54 7.0769 126.749 8.86865 126.749 11.0774C126.749 11.3909 126.785 11.6969 126.853 11.9887C123.528 11.8222 120.581 10.2292 118.607 7.80815C118.263 8.39915 118.066 9.08615 118.066 9.8204C118.066 11.2079 118.772 12.4327 119.845 13.1497C119.189 13.1287 118.572 12.9487 118.033 12.6494C118.033 12.6667 118.033 12.6824 118.033 12.6997C118.033 14.6384 119.411 16.2554 121.242 16.6222C120.907 16.7137 120.553 16.7624 120.188 16.7624C119.93 16.7624 119.679 16.7369 119.435 16.6912C119.945 18.2804 121.422 19.4377 123.173 19.4699C121.804 20.5432 120.079 21.1829 118.204 21.1829C117.881 21.1829 117.563 21.1642 117.249 21.1267C119.02 22.2614 121.122 22.9237 123.382 22.9237C130.741 22.9237 134.764 16.8277 134.764 11.5409C134.764 11.3677 134.76 11.1952 134.753 11.0234C135.535 10.4587 136.214 9.7544 136.75 8.95265Z" fill="#5959CB"/>
<circle cx="183" cy="15" r="15" fill="#5959CB" fill-opacity="0.2"/>
<path d="M181.5 24V15H178.5V12H181.5V10.389C181.5 7.33875 182.986 6 185.521 6C186.735 6 187.377 6.09 187.681 6.13125V9H185.952C184.876 9 184.5 9.56775 184.5 10.7183V12H187.654L187.226 15H184.5V24H181.5Z" fill="#5959CB"/>
</svg>
