<svg width="820" height="326" viewBox="0 0 820 326" fill="none" xmlns="http://www.w3.org/2000/svg">
<path opacity="0.1" d="M331.783 51.7437C375.911 50.3773 422.294 51.901 468.282 56.2281C514.269 60.5552 558.958 67.6007 599.794 76.9613C640.632 86.3222 676.811 97.8132 706.267 110.774C735.731 123.739 757.858 137.906 771.426 152.448C784.989 166.983 789.682 181.542 785.454 195.335C781.213 209.168 768.038 222.118 746.504 233.394C724.985 244.663 695.622 253.995 660.077 260.845C624.536 267.694 583.53 271.923 539.401 273.29C495.272 274.656 448.889 273.132 402.902 268.805C356.914 264.478 312.226 257.433 271.389 248.072C230.551 238.711 194.373 227.22 164.916 214.259C135.453 201.294 113.325 187.128 99.757 172.586C86.1946 158.05 81.501 143.491 85.7293 129.699C89.9701 115.865 103.145 102.915 124.679 91.639C146.199 80.3704 175.562 71.0386 211.107 64.1888C246.648 57.3398 287.653 53.1101 331.783 51.7437L331.783 51.7437Z" stroke="#5959CB"/>
<path opacity="0.1" d="M342.156 237.086C376.411 243.13 412.75 247.175 449.098 248.989C485.446 250.803 521.086 250.351 553.984 247.659C586.883 244.967 616.387 240.088 640.813 233.306C665.246 226.522 684.085 217.975 696.291 208.179C708.491 198.387 713.765 187.597 712.032 176.415C710.292 165.19 701.506 153.626 685.993 142.409C670.494 131.201 648.659 120.615 621.717 111.264C594.779 101.915 563.284 93.991 529.028 87.9471C494.773 81.9032 458.433 77.8586 422.085 76.0445C385.738 74.2304 350.097 74.6827 317.199 77.3745C284.3 80.0665 254.797 84.945 230.371 91.7271C205.937 98.5113 187.098 107.058 174.892 116.855C162.693 126.646 157.418 137.436 159.152 148.619C160.892 159.843 169.678 171.408 185.19 182.625C200.689 193.832 222.525 204.419 249.467 213.769C276.404 223.118 307.9 231.042 342.156 237.086L342.156 237.086Z" stroke="#5959CB"/>
<path opacity="0.1" d="M367.599 216.665C392.529 221.064 418.977 224.007 445.43 225.328C471.884 226.648 497.822 226.319 521.763 224.36C545.706 222.401 567.174 218.85 584.944 213.916C602.722 208.98 616.416 202.765 625.281 195.65C634.139 188.54 637.941 180.73 636.689 172.654C635.431 164.537 629.071 156.147 617.79 147.989C606.522 139.842 590.64 132.141 571.035 125.336C551.434 118.534 528.515 112.767 503.584 108.368C478.654 103.97 452.207 101.026 425.753 99.7059C399.299 98.3856 373.361 98.7148 349.42 100.674C325.478 102.633 304.01 106.183 286.239 111.117C268.461 116.053 254.768 122.269 245.903 129.384C237.045 136.493 233.242 144.304 234.494 152.379C235.752 160.496 242.113 168.886 253.394 177.044C264.662 185.192 280.543 192.893 300.148 199.697C319.749 206.5 342.669 212.266 367.599 216.665L367.599 216.665Z" stroke="#5959CB"/>
<path opacity="0.1" d="M319.369 38.4398C368.776 36.9099 420.707 38.6159 472.196 43.4606C523.684 48.3052 573.718 56.1935 619.44 66.6739C665.163 77.1546 705.671 90.0205 738.653 104.533C771.643 119.049 796.424 134.914 811.623 151.203C826.815 167.486 832.084 183.807 827.341 199.276C822.586 214.786 807.819 229.295 783.705 241.922C759.606 254.541 726.726 264.99 686.928 272.66C647.134 280.328 601.222 285.064 551.814 286.594C502.407 288.124 450.476 286.418 398.987 281.573C347.499 276.728 297.465 268.84 251.743 258.36C206.02 247.879 165.512 235.013 132.53 220.5C99.54 205.984 74.7588 190.119 59.5602 173.83C44.3676 157.548 39.0996 141.226 43.8419 125.757C48.5967 110.247 63.3643 95.7389 87.4781 83.1118C111.577 70.4922 144.457 60.0433 184.256 52.3739C224.05 44.7053 269.961 39.9696 319.369 38.4398L319.369 38.4398Z" stroke="#5959CB"/>
<path opacity="0.1" d="M309.846 28.2343C363.303 26.579 419.49 28.4248 475.198 33.6665C530.906 38.9082 585.04 47.4429 634.51 58.7823C683.981 70.122 727.809 84.0427 763.497 99.7457C799.191 115.452 826.008 132.619 842.458 150.248C858.901 167.871 864.609 185.544 859.473 202.299C854.324 219.095 838.335 234.799 812.242 248.463C786.163 262.119 750.586 273.425 707.525 281.723C664.468 290.02 614.794 295.144 561.336 296.799C507.879 298.454 451.693 296.608 395.985 291.367C340.277 286.125 286.142 277.59 236.673 266.251C187.202 254.911 143.373 240.991 107.686 225.288C71.9913 209.581 45.1742 192.414 28.7251 174.785C12.282 157.162 6.57333 139.489 11.7099 122.734C16.859 105.938 32.8481 90.2339 58.941 76.5705C85.0194 62.9146 120.597 51.6087 163.658 43.3106C206.714 35.0133 256.389 29.8895 309.847 28.2342L309.846 28.2343Z" stroke="#5959CB"/>
</svg>
